<svg xmlns="http://www.w3.org/2000/svg" width="912" height="512" viewBox="140 -4 912 512">
<defs><marker id="arrow-212529" markerWidth="10" markerHeight="7" refX="9" refY="3.5" orient="auto"><polygon points="0 0, 10 3.5, 0 7" fill="#212529" /></marker><marker id="arrow-868e96" markerWidth="10" markerHeight="7" refX="9" refY="3.5" orient="auto"><polygon points="0 0, 10 3.5, 0 7" fill="#868e96" /></marker><style>text { font-family: "Segoe UI", system-ui, -apple-system, sans-serif; }</style></defs>
<text x="416" y="40" font-size="24" fill="#212529">CoCo request flow</text>
<text x="336" y="59" font-size="11" fill="#868e96">browser to App to dspy.ReAct agent to tool surfaces</text>
<rect x="488" y="80" width="184" height="48" rx="8" stroke="#f8f9fa" fill="#868e96" stroke-width="1" />
<text x="580" y="104" font-size="14" fill="#f8f9fa" text-anchor="middle" dominant-baseline="central">User browser</text>
<rect x="464" y="184" width="232" height="64" rx="8" stroke="#f8f9fa" fill="#228be6" stroke-width="1" />
<text x="580" y="208" font-size="14" fill="#f8f9fa" text-anchor="middle" dominant-baseline="central">Databricks App</text>
<text x="580" y="228" font-size="14" fill="#f8f9fa" text-anchor="middle" dominant-baseline="central">(FastAPI + HTMX + SSE)</text>
<rect x="760" y="184" width="200" height="64" rx="8" stroke="#f8f9fa" fill="#5c7cfa" stroke-width="1" />
<text x="860" y="208" font-size="14" fill="#f8f9fa" text-anchor="middle" dominant-baseline="central">Lakebase</text>
<text x="860" y="228" font-size="14" fill="#f8f9fa" text-anchor="middle" dominant-baseline="central">(Postgres sessions)</text>
<rect x="424" y="304" width="312" height="64" rx="8" stroke="#f8f9fa" fill="#3b5bdb" stroke-width="1" />
<text x="580" y="328" font-size="14" fill="#f8f9fa" text-anchor="middle" dominant-baseline="central">CocoAgent</text>
<text x="580" y="348" font-size="14" fill="#f8f9fa" text-anchor="middle" dominant-baseline="central">dspy.ReAct (MAX_ITERS=7)</text>
<rect x="800" y="304" width="232" height="64" rx="8" stroke="#f8f9fa" fill="#40c057" stroke-width="1" />
<text x="916" y="328" font-size="14" fill="#f8f9fa" text-anchor="middle" dominant-baseline="central">MLflow experiment</text>
<text x="916" y="348" font-size="14" fill="#f8f9fa" text-anchor="middle" dominant-baseline="central">traces + spans</text>
<rect x="160" y="424" width="232" height="64" rx="8" stroke="#f8f9fa" fill="#5c7cfa" stroke-width="1" />
<text x="276" y="448" font-size="14" fill="#f8f9fa" text-anchor="middle" dominant-baseline="central">FMAPI</text>
<text x="276" y="468" font-size="14" fill="#f8f9fa" text-anchor="middle" dominant-baseline="central">Claude Sonnet 4.6</text>
<rect x="464" y="424" width="232" height="64" rx="8" stroke="#f8f9fa" fill="#5c7cfa" stroke-width="1" />
<text x="580" y="448" font-size="14" fill="#f8f9fa" text-anchor="middle" dominant-baseline="central">SQL Warehouse</text>
<text x="580" y="468" font-size="14" fill="#f8f9fa" text-anchor="middle" dominant-baseline="central">(UC tables)</text>
<rect x="768" y="424" width="232" height="64" rx="8" stroke="#f8f9fa" fill="#5c7cfa" stroke-width="1" />
<text x="884" y="448" font-size="14" fill="#f8f9fa" text-anchor="middle" dominant-baseline="central">Vector Search</text>
<text x="884" y="468" font-size="14" fill="#f8f9fa" text-anchor="middle" dominant-baseline="central">coco_knowledge_idx</text>
<path d="M 580 128 L 580 184" stroke="#212529" fill="none" stroke-width="1" marker-end="url(#arrow-212529)" />
<path d="M 696 216 L 760 216" stroke="#212529" fill="none" stroke-width="1" marker-end="url(#arrow-212529)" />
<path d="M 580 248 L 580 304" stroke="#212529" fill="none" stroke-width="1" marker-end="url(#arrow-212529)" />
<path d="M 736 336 L 800 336" stroke="#868e96" fill="none" stroke-width="1" marker-end="url(#arrow-868e96)" />
<path d="M 500 368 L 276 424" stroke="#212529" fill="none" stroke-width="1" marker-end="url(#arrow-212529)" />
<path d="M 580 368 L 580 424" stroke="#212529" fill="none" stroke-width="1" marker-end="url(#arrow-212529)" />
<path d="M 660 368 L 884 424" stroke="#212529" fill="none" stroke-width="1" marker-end="url(#arrow-212529)" />
</svg>
