<svg xmlns="http://www.w3.org/2000/svg" width="928" height="558" viewBox="36 -14 928 558">
<defs><marker id="arrow-1e1e1e" markerWidth="10" markerHeight="7" refX="9" refY="3.5" orient="auto"><polygon points="0 0, 10 3.5, 0 7" fill="#1e1e1e" /></marker><style>text { font-family: "Segoe UI", system-ui, -apple-system, sans-serif; }</style></defs>
<text x="260" y="32" font-size="22" fill="#1e1e1e">CoCo — Evaluation + Optimization</text>
<text x="260" y="52" font-size="14" fill="#1e1e1e">four loops on one MLflow experiment</text>
<rect x="60" y="90" width="220" height="60" rx="8" stroke="#1e1e1e" fill="#ffd8a8" stroke-width="1" />
<text x="68" y="122" font-size="16" fill="#1e1e1e">User asks a question</text>
<rect x="60" y="190" width="220" height="80" rx="8" stroke="#1e1e1e" fill="#b2f2bb" stroke-width="1" />
<text x="68" y="232" font-size="16" fill="#1e1e1e">Agent answers</text>
<text x="68" y="252" font-size="16" fill="#1e1e1e">(prompt @production)</text>
<path d="M 170 150 L 170 188" stroke="#1e1e1e" fill="none" stroke-width="1" marker-end="url(#arrow-1e1e1e)" />
<rect x="360" y="90" width="240" height="80" rx="8" stroke="#1e1e1e" fill="#a5d8ff" stroke-width="1" />
<text x="368" y="132" font-size="16" fill="#1e1e1e">MLflow trace</text>
<text x="368" y="152" font-size="16" fill="#1e1e1e">(every tool call, every LM)</text>
<rect x="360" y="210" width="240" height="60" rx="8" stroke="#1e1e1e" fill="#a5d8ff" stroke-width="1" />
<text x="368" y="242" font-size="16" fill="#1e1e1e">Thumbs-up in Lakebase</text>
<path d="M 280 230 L 358 230" stroke="#1e1e1e" fill="none" stroke-width="1" marker-end="url(#arrow-1e1e1e)" />
<path d="M 280 220 L 358 130" stroke="#1e1e1e" fill="none" stroke-width="1" marker-end="url(#arrow-1e1e1e)" />
<rect x="60" y="350" width="220" height="60" rx="8" stroke="#1e1e1e" fill="#d0bfff" stroke-width="1" />
<text x="68" y="382" font-size="16" fill="#1e1e1e">scenarios.yaml</text>
<text x="68" y="402" font-size="16" fill="#1e1e1e">golden set</text>
<rect x="60" y="440" width="220" height="80" rx="8" stroke="#1e1e1e" fill="#b2f2bb" stroke-width="1" />
<text x="68" y="482" font-size="16" fill="#1e1e1e">mlflow.genai.evaluate</text>
<text x="68" y="502" font-size="16" fill="#1e1e1e">4 scorers</text>
<path d="M 170 410 L 170 438" stroke="#1e1e1e" fill="none" stroke-width="1" marker-end="url(#arrow-1e1e1e)" />
<rect x="360" y="350" width="240" height="60" rx="8" stroke="#1e1e1e" fill="#ffc9c9" stroke-width="1" />
<text x="368" y="382" font-size="16" fill="#1e1e1e">Pull last 7d of +1 feedback</text>
<rect x="360" y="440" width="240" height="80" rx="8" stroke="#1e1e1e" fill="#ffc9c9" stroke-width="1" />
<text x="368" y="482" font-size="16" fill="#1e1e1e">mlflow.genai.optimize_prompts</text>
<text x="368" y="502" font-size="16" fill="#1e1e1e">GepaPromptOptimizer</text>
<path d="M 480 270 L 480 348" stroke="#1e1e1e" fill="none" stroke-width="1" marker-end="url(#arrow-1e1e1e)" />
<path d="M 480 410 L 480 438" stroke="#1e1e1e" fill="none" stroke-width="1" marker-end="url(#arrow-1e1e1e)" />
<rect x="680" y="260" width="260" height="80" rx="8" stroke="#1e1e1e" fill="#e599f7" stroke-width="1" />
<text x="688" y="302" font-size="16" fill="#1e1e1e">MLflow Prompt Registry</text>
<text x="688" y="322" font-size="16" fill="#1e1e1e">@production alias</text>
<path d="M 940 300 L 280 220" stroke="#1e1e1e" fill="none" stroke-width="1" stroke-dasharray="8,4" marker-end="url(#arrow-1e1e1e)" />
<path d="M 600 480 L 810 340" stroke="#1e1e1e" fill="none" stroke-width="1" marker-end="url(#arrow-1e1e1e)" />
<path d="M 810 340 L 810 260" stroke="#1e1e1e" fill="none" stroke-width="1" marker-end="url(#arrow-1e1e1e)" />
</svg>