<svg xmlns="http://www.w3.org/2000/svg" width="1216" height="520" viewBox="-8 -4 1216 520">
<defs><marker id="arrow-212529" markerWidth="10" markerHeight="7" refX="9" refY="3.5" orient="auto"><polygon points="0 0, 10 3.5, 0 7" fill="#212529" /></marker><marker id="arrow-868e96" markerWidth="10" markerHeight="7" refX="9" refY="3.5" orient="auto"><polygon points="0 0, 10 3.5, 0 7" fill="#868e96" /></marker><style>text { font-family: "Segoe UI", system-ui, -apple-system, sans-serif; }</style></defs>
<text x="408" y="40" font-size="24" fill="#212529">CoCo MLflow trace structure</text>
<text x="272" y="59" font-size="11" fill="#868e96">react_agent (root) -&gt; dspy.ReAct.forward -&gt; per-iteration tool spans (up to MAX_ITERS=7)</text>
<rect x="100" y="88" width="1000" height="48" rx="8" stroke="#f8f9fa" fill="#3b5bdb" stroke-width="1" />
<text x="600" y="112" font-size="14" fill="#f8f9fa" text-anchor="middle" dominant-baseline="central">react_agent  (MLflow root span, one per user message)</text>
<rect x="200" y="184" width="800" height="56" rx="8" stroke="#f8f9fa" fill="#5c7cfa" stroke-width="1" />
<text x="600" y="212" font-size="14" fill="#f8f9fa" text-anchor="middle" dominant-baseline="central">dspy.ReAct.forward  (auto-span from mlflow.dspy.autolog)</text>
<rect x="12" y="288" width="216" height="72" rx="8" stroke="#f8f9fa" fill="#228be6" stroke-width="1" />
<text x="120" y="314" font-size="13" fill="#f8f9fa" text-anchor="middle" dominant-baseline="central">inspect_schema</text>
<text x="120" y="334" font-size="13" fill="#f8f9fa" text-anchor="middle" dominant-baseline="central">@mlflow.trace</text>
<rect x="252" y="288" width="216" height="72" rx="8" stroke="#f8f9fa" fill="#228be6" stroke-width="1" />
<text x="360" y="314" font-size="13" fill="#f8f9fa" text-anchor="middle" dominant-baseline="central">execute_sql</text>
<text x="360" y="334" font-size="13" fill="#f8f9fa" text-anchor="middle" dominant-baseline="central">@mlflow.trace</text>
<rect x="492" y="288" width="216" height="72" rx="8" stroke="#f8f9fa" fill="#228be6" stroke-width="1" />
<text x="600" y="314" font-size="13" fill="#f8f9fa" text-anchor="middle" dominant-baseline="central">identify_clinical_codes</text>
<text x="600" y="334" font-size="13" fill="#f8f9fa" text-anchor="middle" dominant-baseline="central">@mlflow.trace</text>
<rect x="732" y="288" width="216" height="72" rx="8" stroke="#f8f9fa" fill="#228be6" stroke-width="1" />
<text x="840" y="314" font-size="13" fill="#f8f9fa" text-anchor="middle" dominant-baseline="central">generate_sql</text>
<text x="840" y="334" font-size="13" fill="#f8f9fa" text-anchor="middle" dominant-baseline="central">@mlflow.trace</text>
<rect x="972" y="288" width="216" height="72" rx="8" stroke="#f8f9fa" fill="#228be6" stroke-width="1" />
<text x="1080" y="314" font-size="13" fill="#f8f9fa" text-anchor="middle" dominant-baseline="central">retrieve_knowledge</text>
<text x="1080" y="334" font-size="13" fill="#f8f9fa" text-anchor="middle" dominant-baseline="central">@mlflow.trace</text>
<path d="M 600 136 L 600 184" stroke="#212529" fill="none" stroke-width="1" marker-end="url(#arrow-212529)" />
<path d="M 120 240 L 120 288" stroke="#212529" fill="none" stroke-width="1" marker-end="url(#arrow-212529)" />
<path d="M 360 240 L 360 288" stroke="#212529" fill="none" stroke-width="1" marker-end="url(#arrow-212529)" />
<path d="M 600 240 L 600 288" stroke="#212529" fill="none" stroke-width="1" marker-end="url(#arrow-212529)" />
<path d="M 840 240 L 840 288" stroke="#212529" fill="none" stroke-width="1" marker-end="url(#arrow-212529)" />
<path d="M 1080 240 L 1080 288" stroke="#212529" fill="none" stroke-width="1" marker-end="url(#arrow-212529)" />
<rect x="100" y="424" width="504" height="72" rx="8" stroke="#f8f9fa" fill="#40c057" stroke-width="1" />
<text x="352" y="450" font-size="13" fill="#f8f9fa" text-anchor="middle" dominant-baseline="central">4 scorers in notebooks/02_evaluate.py</text>
<text x="352" y="470" font-size="13" fill="#f8f9fa" text-anchor="middle" dominant-baseline="central">read trace data via mlflow.search_traces</text>
<rect x="632" y="424" width="504" height="72" rx="8" stroke="#f8f9fa" fill="#40c057" stroke-width="1" />
<text x="884" y="450" font-size="13" fill="#f8f9fa" text-anchor="middle" dominant-baseline="central">optimize_prompts (GEPA)</text>
<text x="884" y="470" font-size="13" fill="#f8f9fa" text-anchor="middle" dominant-baseline="central">pulls +1 feedback joined against traces</text>
<path d="M 352 424 L 600 360" stroke="#868e96" fill="none" stroke-width="1" marker-end="url(#arrow-868e96)" />
<path d="M 884 424 L 600 360" stroke="#868e96" fill="none" stroke-width="1" marker-end="url(#arrow-868e96)" />
</svg>
